# xmcd
#
# Track frame offsets:
#	150
#	15258
#	27976
#	46681
#	65266
#	83164
#	97972
#	111895
#	120990
#	133962
#	148320
#	164893
#	178394
#	192234
#	208363
#	221367
#	236937
#	253015
#	268387
#	282180
#	296874
#	314319
#	325667
#	338704
#
# Disc length: 4746 seconds
#
# Revision: 1
# Processed by: cddbd v1.5.1PL0 Copyright (c) Steve Scherf et al.
# Submitted via: EasyCDDAExtractor 6.2.0.3
#
DISCID=7a128818
DTITLE=Forrozão Mineiro
DYEAR=2005
DGENRE=Other
TTITLE0=Júnior and Júnior - Demorou
TTITLE1=Trio Alto Astral - Toca Aquela
TTITLE2=Cadu and Camilinho - Mete Chifre Nele
TTITLE3=Eduardo Costa - Não Vai Embora (Remix)
TTITLE4=Marcelinho De Lima E Gino and Geno - Trovejou Mas Não Choveu
TTITLE5=Valter and Vinícius - Meu Amigo Zé
TTITLE6=Gino and Geno - Cara De Boi
TTITLE7=Trio Fala Sério - Fala Sério
TTITLE8=Felipe and Falcão - Nóis É Simprão De Tudo
TTITLE9=Célio and Marco - Gato Escaldado
TTITLE10=Romes and Carlinhos - Gostoso
TTITLE11=Trio Alto Astral - Ninguém Merece
TTITLE12=Bruno and Marrone - Apaziguar
TTITLE13=Cadu and Camilinho - Mete Cerveja No Povo
TTITLE14=Trio Fala Sério - Chapa Todas
TTITLE15=Chico Rey and Paraná - Bamba Relógio
TTITLE16=Paulo Cézar and Juliano - O Som Do Brasil
TTITLE17=Edson and Hudson - O Bicho Vai Pegar
TTITLE18=Júnior and Júnior - Por Você
TTITLE19=Chanceler and Montenegro - Fogo No Faxo
TTITLE20=Maycon and Renato - Comida À Kilo
TTITLE21=Boquinha Do Forró - Bundinha De Tanajura
TTITLE22=Bruno and Marrone - É Pra Lá Que Eu Vou
TTITLE23=Anderson and Adriano - Goiano E Mineiro
EXTD=by Flávio Abrahão Biasuz
EXTT0=
EXTT1=
EXTT2=
EXTT3=
EXTT4=
EXTT5=
EXTT6=
EXTT7=
EXTT8=
EXTT9=
EXTT10=
EXTT11=
EXTT12=
EXTT13=
EXTT14=
EXTT15=
EXTT16=
EXTT17=
EXTT18=
EXTT19=
EXTT20=
EXTT21=
EXTT22=
EXTT23=
PLAYORDER=
